<svg xmlns="http://www.w3.org/2000/svg" xmlns:inkscape="http://www.inkscape.org/namespaces/inkscape" xmlns:xlink="http://www.w3.org/1999/xlink" width="1920px" height="1080px">

<g inkscape:groupmode="layer" id="Tue Aug 26 11:59:24 2025">

<g id="Cube">  <!-- start Cube -->

<g id="caras_bordes.Cube" stroke-width="1.0px" stroke-linejoin="miter" stroke-linecap="round">
  <polygon stroke="rgb(255,39,122)" fill="rgb(255,39,122)" points="535.375,562.4325 535.375,368.5675 537.5291,366.4135 537.5291,560.2784 " opacity="0.9" />
  <polygon stroke="rgb(255,39,122)" fill="rgb(255,39,122)" points="406.5625,562.4325 406.5625,368.5675 408.7166,366.4135 408.7166,560.2784 " opacity="0.9" />
  <polygon stroke="rgb(255,39,122)" fill="rgb(255,39,122)" points="1179.4375,562.4325 1179.4375,368.5675 1181.5916,366.4135 1181.5916,560.2784 " opacity="0.9" />
  <polygon stroke="rgb(255,39,122)" fill="rgb(255,39,122)" points="793.0,562.4325 793.0,368.5675 795.1541,366.4135 795.1541,560.2784 " opacity="0.9" />
  <polygon stroke="rgb(255,39,122)" fill="rgb(255,39,122)" points="406.5625,368.5675 1179.4375,368.5675 1181.5916,366.4135 408.7166,366.4135 " opacity="0.9" />
  <polygon stroke="rgb(255,39,122)" fill="rgb(255,39,122)" points="406.5625,562.4325 1179.4375,562.4325 1181.5916,560.2784 408.7166,560.2784 " opacity="0.9" />
  <polygon stroke="rgb(255,39,122)" fill="rgb(255,39,122)" points="664.1875,562.4325 664.1875,368.5675 666.3416,366.4135 666.3416,560.2784 " opacity="0.9" />
  <polygon stroke="rgb(255,39,122)" fill="rgb(255,39,122)" points="921.8125,562.4325 921.8125,368.5675 923.9666,366.4135 923.9666,560.2784 " opacity="0.9" />
  <polygon stroke="rgb(255,39,122)" fill="rgb(255,39,122)" points="1050.625,562.4325 1050.625,368.5675 1052.7791,366.4135 1052.7791,560.2784 " opacity="0.9" />
  <polygon stroke="rgb(255,39,122)" fill="rgb(255,39,122)" points="406.5625,465.5 1179.4375,465.5 1181.5916,463.3459 408.7166,463.3459 " opacity="0.9" />
</g>

</g>  <!-- end Cube -->

</g>

</svg>

